<?xml version="1.0" standalone="no"?><!DOCTYPE svg PUBLIC "-//W3C//DTD SVG 1.1//EN" "http://www.w3.org/Graphics/SVG/1.1/DTD/svg11.dtd"><svg t="1678268586927" class="icon" viewBox="0 0 1024 1024" version="1.1" xmlns="http://www.w3.org/2000/svg" p-id="2761" xmlns:xlink="http://www.w3.org/1999/xlink" width="200" height="200"><path d="M533.333333 492.8s0-2.133333 0 0V106.666667c0-12.8-8.533333-21.333333-21.333333-21.333334s-21.333333 8.533333-21.333333 21.333334v386.133333c-59.733333 10.666667-106.666667 61.866667-106.666667 125.866667 0 70.4 57.6 128 128 128s128-57.6 128-128c0-64-46.933333-115.2-106.666667-125.866667zM512 704c-46.933333 0-85.333333-38.4-85.333333-85.333333s38.4-85.333333 85.333333-85.333334 85.333333 38.4 85.333333 85.333334-38.4 85.333333-85.333333 85.333333zM170.666667 213.333333c12.8 0 21.333333-8.533333 21.333333-21.333333V106.666667c0-12.8-8.533333-21.333333-21.333333-21.333334s-21.333333 8.533333-21.333334 21.333334v85.333333c0 12.8 8.533333 21.333333 21.333334 21.333333z m682.666666 0c12.8 0 21.333333-8.533333 21.333334-21.333333V106.666667c0-12.8-8.533333-21.333333-21.333334-21.333334s-21.333333 8.533333-21.333333 21.333334v85.333333c0 12.8 8.533333 21.333333 21.333333 21.333333z m128 192c0-70.4-57.6-128-128-128s-128 57.6-128 128c0 64 46.933333 115.2 106.666667 125.866667V917.333333c0 12.8 8.533333 21.333333 21.333333 21.333334s21.333333-8.533333 21.333334-21.333334V531.2c59.733333-10.666667 106.666667-61.866667 106.666666-125.866667z m-128 85.333334c-46.933333 0-85.333333-38.4-85.333333-85.333334s38.4-85.333333 85.333333-85.333333 85.333333 38.4 85.333334 85.333333-38.4 85.333333-85.333334 85.333334zM512 810.666667c-12.8 0-21.333333 8.533333-21.333333 21.333333v85.333333c0 12.8 8.533333 21.333333 21.333333 21.333334s21.333333-8.533333 21.333333-21.333334v-85.333333c0-12.8-8.533333-21.333333-21.333333-21.333333zM170.666667 277.333333c-70.4 0-128 57.6-128 128 0 64 46.933333 115.2 106.666666 125.866667V917.333333c0 12.8 8.533333 21.333333 21.333334 21.333334s21.333333-8.533333 21.333333-21.333334V531.2c59.733333-10.666667 106.666667-61.866667 106.666667-125.866667 0-70.4-57.6-128-128-128z m0 213.333334c-46.933333 0-85.333333-38.4-85.333334-85.333334s38.4-85.333333 85.333334-85.333333 85.333333 38.4 85.333333 85.333333-38.4 85.333333-85.333333 85.333334z" fill="#8a8a8a" p-id="2762"></path></svg>